# xmcd
#
# Track frame offsets: 
#        150
#        3392
#        23554
#        43177
#        64016
#        85197
#        107565
#        115819
#        138468
#        160100
#        176066
#        205555
#
# Disc length: 2989 seconds
#
# Revision: 0
# Processed by: cddbd v1.5.2PL0 Copyright (c) Steve Scherf et al.
# Submitted via: ExactAudioCopy v0.99pb5
#
DISCID=920bab0c
DTITLE=Alastair Greene - Through the Rain
DYEAR=2011
DGENRE=Blues
TTITLE0=Before the Storm
TTITLE1=Through the Rain
TTITLE2=By the Way
TTITLE3=Get Your Evil On
TTITLE4=T'Other Way
TTITLE5=All Of This Time
TTITLE6=Dearly Departed
TTITLE7=Take Me With You
TTITLE8=Madman
TTITLE9=Stoneroller
TTITLE10=The Real You
TTITLE11=You Will Remember
EXTD=
EXTT0=
EXTT1=
EXTT2=
EXTT3=
EXTT4=
EXTT5=
EXTT6=
EXTT7=
EXTT8=
EXTT9=
EXTT10=
EXTT11=
PLAYORDER=
